<svg width="114" height="16" viewBox="0 0 114 16" fill="none" xmlns="http://www.w3.org/2000/svg">
<path d="M0 12.6945V15.3714C1.17769 15.7567 2.65995 16 4.32495 16C8.95447 16 11.7566 14.1749 11.7566 10.3016V0.365018H3.06604V2.89987H8.50777V10.2205C8.50777 12.0659 6.82246 13.2421 3.61428 13.2421C2.43659 13.2421 1.2183 13.0798 0 12.6945Z" fill="#F2F2F2"/>
<path d="M22.4108 15.9392C27.9337 15.9392 31.4465 12.7959 31.4465 7.96958C31.4465 3.1635 27.9337 0.0202786 22.4108 0.0202786C16.8878 0.0202786 13.3751 3.1635 13.3751 7.96958C13.3751 12.7959 16.8878 15.9392 22.4108 15.9392ZM16.6239 7.96958C16.6239 4.74525 18.898 2.65653 22.4108 2.65653C25.9235 2.65653 28.1977 4.74525 28.1977 7.96958C28.1977 11.1939 25.9235 13.2624 22.4108 13.2624C18.898 13.2624 16.6239 11.1939 16.6239 7.96958Z" fill="#F2F2F2"/>
<path d="M32.9789 4.19772C32.9179 10.6058 44.6339 7.78707 44.6339 11.2953C44.6339 12.4715 43.3953 13.2015 40.7353 13.2015C37.9333 13.2015 35.6185 12.4309 32.9586 11.1736L33.1616 14.2763C35.2936 15.2902 37.9333 15.9392 40.715 15.9392C45.3446 15.9392 47.8421 14.256 47.8421 11.2345C47.8421 4.78581 36.1261 7.44233 36.1261 4.25855C36.1261 3.18378 37.3444 2.59569 40.2886 2.59569C42.9689 2.59569 45.2836 3.12294 47.1111 3.75158L46.9283 0.912547C45.2836 0.446133 42.9486 0 40.2277 0C35.3342 0 32.9992 1.41952 32.9789 4.19772Z" fill="#F2F2F2"/>
<path d="M49.4274 15.5741H63.2957V12.9379H52.6762V9.12547H62.0368V6.57034H52.6762V3.00127H63.1333V0.365018H49.4274V15.5741Z" fill="#F2F2F2"/>
<path d="M65.0186 15.5741H68.2674V9.89607H75.2929C77.8513 9.89607 80.3894 8.37516 80.3894 5.13054C80.3894 2.61597 78.8666 0.365018 75.2929 0.365018H65.0186V15.5741ZM68.2674 7.25982V3.00127H74.1355C76.2472 3.00127 77.1406 3.62991 77.1406 5.13054C77.1406 6.63118 76.3082 7.25982 74.2777 7.25982H68.2674Z" fill="#F2F2F2"/>
<path d="M81.9185 15.5741H85.1673V9.22687H94.7512V15.5741H98V0.365018H94.7512V6.59062H85.1673V0.365018H81.9185V15.5741Z" fill="#F2F2F2"/>
<path d="M105.535 8.33021H106.976V6.55159H107.831L109.205 8.33021H110.893L109.362 6.43902C110.15 6.25891 110.623 5.69606 110.623 4.97561C110.623 4.09756 109.947 3.42214 108.754 3.42214H105.535V8.33021ZM102 5.98874C102 9.29831 104.702 12 108.011 12C111.298 12 114 9.29831 114 5.98874C114 2.70169 111.298 0 108.011 0C104.702 0 102 2.70169 102 5.98874ZM103.576 5.98874C103.576 3.39962 105.4 1.48593 108.011 1.48593C110.6 1.48593 112.424 3.39962 112.424 5.98874C112.424 8.60037 110.6 10.5141 108.011 10.5141C105.4 10.5141 103.576 8.60037 103.576 5.98874ZM106.976 5.40338V4.59287H108.529C109.092 4.59287 109.182 4.66041 109.182 4.97561C109.182 5.31332 109.092 5.40338 108.574 5.40338H106.976Z" fill="#F2F2F2"/>
</svg>
